<svg width="390" height="129" viewBox="0 0 390 129" fill="none" xmlns="http://www.w3.org/2000/svg">
<line x1="85.6763" y1="116.601" x2="129.214" y2="11.7882" stroke="#111E6C" stroke-width="10"/>
<line x1="85.4061" y1="120.504" x2="54.9116" y2="11.1825" stroke="#111E6C" stroke-width="10"/>
<line x1="11.5013" y1="114.988" x2="55.0388" y2="10.1757" stroke="#111E6C" stroke-width="10"/>
<circle cx="130.606" cy="12.0938" r="10.5938" fill="white" stroke="#111E6C" stroke-width="3"/>
<circle cx="12.8937" cy="116.906" r="10.5938" fill="white" stroke="#111E6C" stroke-width="3"/>
<circle cx="55.625" cy="12.0938" r="10.5938" fill="white" stroke="#111E6C" stroke-width="3"/>
<circle cx="86.2625" cy="116.906" r="10.5938" fill="white" stroke="#111E6C" stroke-width="3"/>
<path d="M169.887 81H165.754L152.659 55.7988V81H148.526V48.2969H152.659L165.799 73.6104V48.2969H169.887V81ZM185.138 81.4492C182.113 81.4492 179.792 80.5508 178.175 78.7539C176.558 76.9421 175.734 74.2917 175.704 70.8027V67.8604C175.704 64.2367 176.49 61.3991 178.062 59.3477C179.65 57.2812 181.858 56.248 184.688 56.248C187.534 56.248 189.66 57.154 191.067 58.9658C192.475 60.7777 193.194 63.6003 193.224 67.4336V70.0391H179.657V70.6006C179.657 73.2061 180.144 75.1003 181.117 76.2832C182.105 77.4661 183.521 78.0576 185.362 78.0576C186.53 78.0576 187.556 77.8405 188.439 77.4062C189.338 76.957 190.176 76.2533 190.955 75.2949L193.021 77.8105C191.299 80.2363 188.672 81.4492 185.138 81.4492ZM184.688 59.6621C183.041 59.6621 181.821 60.2311 181.027 61.3691C180.234 62.4922 179.785 64.2441 179.68 66.625H189.248V66.0859C189.143 63.7799 188.724 62.1328 187.99 61.1445C187.271 60.1562 186.171 59.6621 184.688 59.6621ZM205.038 65.5693L209.193 56.6973H213.798L207.194 68.7139L213.955 81H209.396L205.105 71.9033L200.793 81H196.211L202.972 68.7139L196.391 56.6973H200.95L205.038 65.5693ZM223.434 50.8125V56.6973H227.095V59.9092H223.434V74.9805C223.434 75.9388 223.591 76.665 223.905 77.1592C224.22 77.6533 224.759 77.9004 225.522 77.9004C226.047 77.9004 226.578 77.8105 227.117 77.6309L227.072 81C226.174 81.2995 225.253 81.4492 224.31 81.4492C222.737 81.4492 221.539 80.8877 220.716 79.7646C219.892 78.6416 219.48 77.0544 219.48 75.0029V59.9092H215.774V56.6973H219.48V50.8125H223.434ZM263.459 70.623C263.279 74.127 262.291 76.8073 260.494 78.6641C258.712 80.5208 256.189 81.4492 252.925 81.4492C249.646 81.4492 247.04 80.2064 245.108 77.7207C243.177 75.2201 242.211 71.8359 242.211 67.5684V61.6387C242.211 57.3861 243.199 54.0244 245.176 51.5537C247.167 49.083 249.878 47.8477 253.307 47.8477C256.466 47.8477 258.907 48.7985 260.629 50.7002C262.366 52.5869 263.309 55.2897 263.459 58.8086H259.304C259.124 56.1432 258.562 54.2415 257.619 53.1035C256.676 51.9655 255.238 51.3965 253.307 51.3965C251.076 51.3965 249.361 52.2725 248.163 54.0244C246.965 55.7614 246.366 58.3145 246.366 61.6836V67.6807C246.366 70.9899 246.92 73.528 248.028 75.2949C249.151 77.0618 250.784 77.9453 252.925 77.9453C255.066 77.9453 256.608 77.4137 257.552 76.3506C258.495 75.2874 259.079 73.3783 259.304 70.623H263.459ZM267.659 67.7256C267.659 64.1917 268.513 61.3991 270.22 59.3477C271.942 57.2812 274.21 56.248 277.025 56.248C279.84 56.248 282.102 57.2513 283.809 59.2578C285.531 61.2643 286.414 63.9971 286.459 67.4561V70.0166C286.459 73.5355 285.605 76.3206 283.898 78.3721C282.191 80.4235 279.915 81.4492 277.07 81.4492C274.255 81.4492 271.994 80.4535 270.287 78.4619C268.595 76.4704 267.719 73.7751 267.659 70.376V67.7256ZM271.635 70.0166C271.635 72.5173 272.121 74.4863 273.095 75.9238C274.083 77.3464 275.408 78.0576 277.07 78.0576C280.574 78.0576 282.379 75.527 282.483 70.4658V67.7256C282.483 65.2399 281.989 63.2783 281.001 61.8408C280.013 60.3883 278.688 59.6621 277.025 59.6621C275.393 59.6621 274.083 60.3883 273.095 61.8408C272.121 63.2783 271.635 65.2324 271.635 67.7031V70.0166ZM295.331 56.6973L295.443 59.3252C296.986 57.2738 298.955 56.248 301.351 56.248C305.648 56.248 307.827 59.1156 307.887 64.8506V81H303.934V65.0303C303.934 63.1286 303.612 61.7809 302.968 60.9873C302.339 60.1787 301.388 59.7744 300.115 59.7744C299.127 59.7744 298.236 60.1038 297.442 60.7627C296.664 61.4215 296.035 62.2826 295.556 63.3457V81H291.58V56.6973H295.331ZM317.612 56.6973L317.725 59.3252C319.267 57.2738 321.236 56.248 323.632 56.248C327.929 56.248 330.108 59.1156 330.168 64.8506V81H326.215V65.0303C326.215 63.1286 325.893 61.7809 325.249 60.9873C324.62 60.1787 323.669 59.7744 322.396 59.7744C321.408 59.7744 320.517 60.1038 319.724 60.7627C318.945 61.4215 318.316 62.2826 317.837 63.3457V81H313.861V56.6973H317.612ZM344.835 81.4492C341.81 81.4492 339.489 80.5508 337.872 78.7539C336.255 76.9421 335.431 74.2917 335.401 70.8027V67.8604C335.401 64.2367 336.188 61.3991 337.76 59.3477C339.347 57.2812 341.556 56.248 344.386 56.248C347.231 56.248 349.357 57.154 350.765 58.9658C352.172 60.7777 352.891 63.6003 352.921 67.4336V70.0391H339.354V70.6006C339.354 73.2061 339.841 75.1003 340.814 76.2832C341.803 77.4661 343.218 78.0576 345.06 78.0576C346.228 78.0576 347.253 77.8405 348.137 77.4062C349.035 76.957 349.874 76.2533 350.652 75.2949L352.719 77.8105C350.997 80.2363 348.369 81.4492 344.835 81.4492ZM344.386 59.6621C342.739 59.6621 341.518 60.2311 340.725 61.3691C339.931 62.4922 339.482 64.2441 339.377 66.625H348.945V66.0859C348.84 63.7799 348.421 62.1328 347.688 61.1445C346.969 60.1562 345.868 59.6621 344.386 59.6621ZM366.15 78.0576C367.468 78.0576 368.524 77.6533 369.317 76.8447C370.111 76.0212 370.545 74.8532 370.62 73.3408H374.371C374.281 75.6768 373.45 77.6159 371.878 79.1582C370.321 80.6855 368.411 81.4492 366.15 81.4492C363.141 81.4492 360.842 80.5059 359.255 78.6191C357.683 76.7174 356.896 73.8949 356.896 70.1514V67.4785C356.896 63.8099 357.683 61.0247 359.255 59.123C360.827 57.2064 363.118 56.248 366.128 56.248C368.614 56.248 370.583 57.0342 372.035 58.6064C373.503 60.1787 374.281 62.3275 374.371 65.0527H370.62C370.53 63.2559 370.096 61.9082 369.317 61.0098C368.554 60.1113 367.491 59.6621 366.128 59.6621C364.361 59.6621 363.051 60.2461 362.197 61.4141C361.344 62.5671 360.902 64.4688 360.872 67.1191V70.2188C360.872 73.0788 361.291 75.1003 362.13 76.2832C362.983 77.4661 364.324 78.0576 366.15 78.0576ZM384.164 50.8125V56.6973H387.825V59.9092H384.164V74.9805C384.164 75.9388 384.321 76.665 384.636 77.1592C384.95 77.6533 385.489 77.9004 386.253 77.9004C386.777 77.9004 387.309 77.8105 387.848 77.6309L387.803 81C386.904 81.2995 385.983 81.4492 385.04 81.4492C383.468 81.4492 382.27 80.8877 381.446 79.7646C380.623 78.6416 380.211 77.0544 380.211 75.0029V59.9092H376.505V56.6973H380.211V50.8125H384.164Z" fill="black"/>
</svg>
